# xmcd
#
# Track frame offsets:
#	150
#	16535
#	34862
#	53950
#	69452
#	84804
#	100477
#	121715
#	139147
#	158070
#	170410
#	185610
#	203092
#	218390
#	233625
#	246612
#	265640
#	280545
#
# Disc length: 4072
#
# Revision: 1
# Processed by: cddbd v1.5.1PL0 Copyright (c) Steve Scherf et al.
# Submitted via: CDex 1.51
# Normalized: r0:TDELIM( - )
#
DISCID=e80fe612
DTITLE=Various Artist - New Age Music Vol. 5
DYEAR=1998
DGENRE=New Age
TTITLE0=Corciolli - Spiritualia
TTITLE1=Henri Seroka - Lost Temple
TTITLE2=Hildegard von Bingen - O Ignus Spiritus
TTITLE3=Mike Rowland - Sylvan Wings
TTITLE4=Aeoliah - Hearts of the Future
TTITLE5=Medwyn Goodall - The Grail
TTITLE6=Daniele Garella - Waves
TTITLE7=Simon Cooper - Quiet Time
TTITLE8=Thomas and Evans - Mysteries of the World
TTITLE9=Ensemble Tblisi - Imeruli Nana
TTITLE10=93-D - Kapin Ya
TTITLE11=Christa Michell - Dreamtime Dolphin
TTITLE12=Smart Music 1 - Dreams Part 2
TTITLE13=Schawkie Roth - To the One
TTITLE14=Sounds of the Earth - Part 1 (Birds in the Rainforest)
TTITLE15=The sacred Ones - Maniwaki
TTITLE16=Carolina - Goud Sarang
TTITLE17=Mantras from Tibet - Vajra Guru Mantra
EXTD=YEAR: 1998
EXTT0=
EXTT1=
EXTT2=
EXTT3=
EXTT4=
EXTT5=
EXTT6=
EXTT7=
EXTT8=
EXTT9=
EXTT10=
EXTT11=
EXTT12=
EXTT13=
EXTT14=
EXTT15=
EXTT16=
EXTT17=
PLAYORDER=
